<?xml version="1.0" encoding="UTF-8"?>
<svg xmlns="http://www.w3.org/2000/svg" xmlns:xlink="http://www.w3.org/1999/xlink" width="218.146" height="380.135" viewBox="0 0 218.146 380.135">
<path fill-rule="nonzero" fill="rgb(0.784302%, 0%, 0%)" fill-opacity="1" d="M 193.035156 369.300781 C 193.035156 373.964844 158.179688 377.742188 115.179688 377.742188 C 72.183594 377.742188 37.328125 373.964844 37.328125 369.300781 C 37.328125 364.636719 72.183594 360.859375 115.179688 360.859375 C 158.179688 360.859375 193.035156 364.636719 193.035156 369.300781 "/>
<path fill-rule="nonzero" fill="rgb(100%, 100%, 100%)" fill-opacity="1" d="M 115.089844 76.125 C 122.964844 76.121094 129.347656 77.328125 129.347656 78.816406 C 129.347656 80.304688 122.964844 81.515625 115.09375 81.519531 C 107.21875 81.519531 100.835938 80.316406 100.835938 78.828125 C 100.835938 77.335938 107.21875 76.128906 115.089844 76.125 M 92.617188 160.222656 L 92.617188 160.242188 C 92.605469 160.632812 92.871094 160.988281 93.265625 161.078125 C 93.714844 161.183594 94.164062 160.902344 94.265625 160.453125 C 95.78125 153.875 96.964844 147.246094 98 140.597656 C 108.902344 138.695312 118.097656 129.578125 127.738281 125.328125 C 132.707031 123.136719 136.453125 124.46875 138.964844 128.148438 C 137.175781 114.75 135.582031 98.089844 134.976562 91.523438 C 134.324219 91.640625 133.675781 91.738281 133.039062 91.820312 C 129.132812 92.277344 125.371094 92.152344 121.722656 92.070312 L 121.710938 92.070312 C 120.667969 92.046875 119.839844 91.183594 119.867188 90.140625 C 119.886719 89.171875 120.632812 88.390625 121.574219 88.304688 C 125.242188 87.953125 128.832031 87.613281 132.152344 86.808594 C 133.789062 86.410156 135.386719 85.882812 136.546875 85.175781 C 137.09375 84.820312 137.589844 84.441406 137.753906 84.109375 C 137.800781 84.054688 137.828125 84.007812 137.855469 83.957031 C 137.898438 83.832031 137.933594 83.703125 137.964844 83.558594 C 137.972656 83.476562 137.976562 83.390625 138 83.308594 L 138.023438 83.21875 C 138.125 82.539062 138.128906 81.6875 137.910156 80.566406 C 137.539062 78.679688 134.550781 74.296875 114.890625 74.296875 L 114.851562 74.296875 C 99.816406 74.304688 92.910156 76.234375 91.757812 80.753906 C 90.835938 84.371094 93.097656 85.707031 94.117188 86.109375 L 96.328125 86.996094 L 96.167969 89.390625 C 96.03125 90.933594 92.90625 125.945312 90.066406 140.609375 C 91.363281 140.839844 92.625 140.9375 93.871094 140.941406 C 93.257812 147.339844 92.785156 153.757812 92.617188 160.222656 "/>
<path fill-rule="nonzero" fill="rgb(97.254944%, 60.784912%, 22.744751%)" fill-opacity="1" d="M 158.34375 277.15625 C 152.296875 289.203125 138.53125 296.394531 120.570312 296.890625 C 119.875 296.910156 119.179688 296.921875 118.492188 296.921875 C 101.414062 296.921875 87.898438 291.003906 80.277344 280.140625 C 74.121094 271.359375 72.816406 260.089844 76.792969 249.996094 C 82.097656 236.519531 92.914062 239.730469 102.457031 242.566406 C 107.402344 244.035156 112.523438 245.546875 117.304688 245.230469 C 121.515625 244.945312 125.382812 244.203125 129.121094 243.484375 C 139.375 241.519531 149.066406 239.664062 156.898438 250.800781 C 162.179688 258.3125 162.730469 268.410156 158.34375 277.15625 M 142.402344 325.449219 C 135.917969 325.449219 130.644531 320.179688 130.644531 313.695312 C 130.644531 307.210938 135.917969 301.9375 142.402344 301.9375 C 148.882812 301.9375 154.15625 307.210938 154.15625 313.695312 C 154.15625 320.179688 148.882812 325.449219 142.402344 325.449219 M 144.804688 346.292969 C 141.859375 346.292969 139.464844 343.898438 139.464844 340.953125 C 139.464844 338.007812 141.859375 335.609375 144.804688 335.609375 C 147.753906 335.609375 150.148438 338.007812 150.148438 340.953125 C 150.148438 343.898438 147.753906 346.292969 144.804688 346.292969 M 95.90625 330.660156 C 91.410156 330.660156 87.753906 327.007812 87.753906 322.511719 C 87.753906 318.019531 91.410156 314.363281 95.90625 314.363281 C 100.398438 314.363281 104.054688 318.019531 104.054688 322.511719 C 104.054688 327.007812 100.398438 330.660156 95.90625 330.660156 M 79.847656 359.121094 C 79.640625 359.449219 79.273438 359.613281 78.910156 359.574219 C 77.550781 359.425781 76.144531 359.273438 74.78125 358.871094 C 73.453125 358.359375 72.042969 357.9375 70.84375 357.019531 C 69.519531 356.300781 68.515625 355.117188 67.472656 354 C 67.042969 353.367188 66.644531 352.707031 66.238281 352.054688 C 65.871094 351.386719 65.632812 350.660156 65.335938 349.960938 C 64.390625 347.070312 64.304688 344.070312 64.804688 341.296875 C 65.308594 338.507812 66.246094 335.902344 67.816406 333.558594 C 68.074219 333.171875 68.597656 333.066406 68.988281 333.328125 C 69.269531 333.515625 69.398438 333.84375 69.351562 334.15625 L 69.339844 334.226562 C 68.5625 339.242188 68.140625 344.316406 69.601562 348.484375 C 70.257812 350.589844 71.542969 352.355469 73.242188 353.828125 C 74.027344 354.648438 75.078125 355.203125 76.066406 355.890625 C 77.089844 356.539062 78.257812 356.980469 79.367188 357.671875 L 79.535156 357.777344 C 79.992188 358.0625 80.132812 358.664062 79.847656 359.121094 M 68.796875 240.644531 C 68.839844 240.105469 69.316406 239.703125 69.855469 239.75 C 70.34375 239.789062 70.714844 240.179688 70.753906 240.652344 C 71.753906 253.574219 71.933594 266.492188 71.910156 279.410156 C 71.800781 292.328125 71.492188 305.246094 70.363281 318.160156 C 70.320312 318.617188 69.917969 318.957031 69.457031 318.917969 C 69.042969 318.882812 68.730469 318.550781 68.695312 318.152344 C 67.648438 305.230469 67.421875 292.3125 67.394531 279.394531 C 67.453125 266.476562 67.710938 253.558594 68.796875 240.644531 M 79.8125 227.042969 C 79.816406 226.664062 80.996094 189.238281 99.617188 189.234375 C 101.867188 189.234375 104.175781 189.832031 106.476562 191.011719 C 110.765625 193.203125 115.421875 198.023438 118.015625 208.242188 C 120.601562 198.023438 125.25 193.199219 129.539062 191.003906 C 131.84375 189.820312 134.15625 189.222656 136.40625 189.222656 C 155.019531 189.222656 156.222656 226.636719 156.230469 227.015625 L 156.285156 229.96875 L 153.8125 231.582031 C 144.214844 237.863281 132.683594 240.097656 125.09375 240.097656 C 123.628906 240.097656 122.226562 240.023438 120.921875 239.871094 L 118.023438 239.535156 L 115.128906 239.871094 C 113.816406 240.027344 112.402344 240.105469 110.929688 240.105469 C 103.34375 240.105469 91.824219 237.871094 82.230469 231.605469 L 79.757812 229.992188 Z M 126.96875 143.605469 C 131.574219 143.605469 135.316406 147.351562 135.316406 151.957031 C 135.316406 156.5625 131.574219 160.304688 126.96875 160.304688 C 122.363281 160.304688 118.621094 156.5625 118.621094 151.957031 C 118.621094 147.351562 122.363281 143.605469 126.96875 143.605469 M 166.078125 328.011719 L 166.070312 327.578125 C 166.0625 327.136719 165.273438 283.023438 166.046875 249.484375 C 166.445312 232.058594 164.601562 218.554688 160.246094 206.988281 C 153.144531 188.121094 147.226562 168.257812 142.15625 146.261719 C 141.839844 144.890625 141.542969 143.582031 141.277344 142.367188 C 140.511719 138.890625 139.71875 133.8125 138.964844 128.148438 C 136.453125 124.472656 132.707031 123.136719 127.738281 125.328125 C 118.097656 129.578125 108.902344 138.695312 98 140.597656 C 96.964844 147.246094 95.78125 153.875 94.265625 160.453125 C 94.164062 160.902344 93.714844 161.179688 93.265625 161.078125 C 92.871094 160.988281 92.605469 160.632812 92.617188 160.242188 L 92.617188 160.222656 C 92.785156 153.757812 93.257812 147.339844 93.871094 140.945312 C 92.625 140.933594 91.363281 140.84375 90.070312 140.609375 C 89.945312 141.234375 89.828125 141.839844 89.707031 142.386719 C 89.441406 143.59375 89.148438 144.894531 88.835938 146.253906 C 84.453125 165.332031 79.511719 185.570312 71.632812 204.84375 C 66.679688 216.960938 64.578125 231.160156 65.007812 249.519531 C 65.800781 283.058594 65.042969 327.167969 65.035156 327.613281 L 65.027344 328.046875 L 64.90625 328.464844 C 63.160156 334.390625 59.59375 351.5 64.019531 359.378906 C 65.105469 361.316406 66.597656 362.515625 68.582031 363.046875 C 96.070312 370.398438 135.585938 370.390625 162.535156 363.015625 C 164.523438 362.476562 166.019531 361.257812 167.109375 359.304688 C 171.519531 351.378906 167.949219 334.328125 166.203125 328.429688 Z M 166.078125 328.011719 "/>
<path fill-rule="nonzero" fill="rgb(97.254944%, 60.784912%, 22.744751%)" fill-opacity="1" d="M 126.96875 156.035156 C 129.214844 156.035156 131.046875 154.203125 131.046875 151.957031 C 131.046875 149.710938 129.214844 147.878906 126.96875 147.878906 C 124.722656 147.878906 122.890625 149.710938 122.890625 151.957031 C 122.890625 154.203125 124.722656 156.035156 126.96875 156.035156 "/>
<path fill-rule="nonzero" fill="rgb(0.784302%, 0%, 0%)" fill-opacity="1" d="M 126.96875 147.878906 C 129.214844 147.878906 131.046875 149.710938 131.046875 151.957031 C 131.046875 154.203125 129.214844 156.035156 126.96875 156.035156 C 124.722656 156.035156 122.890625 154.203125 122.890625 151.957031 C 122.890625 149.710938 124.722656 147.878906 126.96875 147.878906 M 126.96875 160.304688 C 131.574219 160.304688 135.316406 156.5625 135.316406 151.957031 C 135.316406 147.351562 131.574219 143.605469 126.96875 143.605469 C 122.363281 143.605469 118.621094 147.351562 118.621094 151.957031 C 118.621094 156.5625 122.363281 160.304688 126.96875 160.304688 "/>
<path fill-rule="nonzero" fill="rgb(97.254944%, 60.784912%, 22.744751%)" fill-opacity="1" d="M 95.90625 318.636719 C 93.765625 318.636719 92.027344 320.375 92.027344 322.515625 C 92.027344 324.652344 93.765625 326.390625 95.90625 326.390625 C 98.042969 326.390625 99.78125 324.652344 99.78125 322.515625 C 99.78125 320.375 98.042969 318.636719 95.90625 318.636719 "/>
<path fill-rule="nonzero" fill="rgb(0.784302%, 0%, 0%)" fill-opacity="1" d="M 95.90625 326.390625 C 93.765625 326.390625 92.027344 324.652344 92.027344 322.515625 C 92.027344 320.375 93.765625 318.636719 95.90625 318.636719 C 98.042969 318.636719 99.78125 320.375 99.78125 322.515625 C 99.78125 324.652344 98.042969 326.390625 95.90625 326.390625 M 95.90625 314.363281 C 91.410156 314.363281 87.753906 318.019531 87.753906 322.515625 C 87.753906 327.007812 91.410156 330.660156 95.90625 330.660156 C 100.398438 330.660156 104.054688 327.007812 104.054688 322.515625 C 104.054688 318.019531 100.398438 314.363281 95.90625 314.363281 "/>
<path fill-rule="nonzero" fill="rgb(97.254944%, 60.784912%, 22.744751%)" fill-opacity="1" d="M 142.402344 306.210938 C 138.273438 306.210938 134.917969 309.570312 134.917969 313.695312 C 134.917969 317.820312 138.273438 321.179688 142.402344 321.179688 C 146.527344 321.179688 149.886719 317.820312 149.886719 313.695312 C 149.886719 309.570312 146.527344 306.210938 142.402344 306.210938 "/>
<path fill-rule="nonzero" fill="rgb(0.784302%, 0%, 0%)" fill-opacity="1" d="M 142.402344 321.179688 C 138.273438 321.179688 134.917969 317.820312 134.917969 313.695312 C 134.917969 309.566406 138.273438 306.210938 142.402344 306.210938 C 146.527344 306.210938 149.886719 309.566406 149.886719 313.695312 C 149.886719 317.820312 146.527344 321.179688 142.402344 321.179688 M 142.402344 301.9375 C 135.917969 301.9375 130.644531 307.210938 130.644531 313.695312 C 130.644531 320.175781 135.917969 325.449219 142.402344 325.449219 C 148.882812 325.449219 154.15625 320.175781 154.15625 313.695312 C 154.15625 307.210938 148.882812 301.9375 142.402344 301.9375 "/>
<path fill-rule="nonzero" fill="rgb(97.254944%, 60.784912%, 22.744751%)" fill-opacity="1" d="M 144.804688 339.882812 C 144.214844 339.882812 143.738281 340.363281 143.738281 340.953125 C 143.738281 341.542969 144.214844 342.023438 144.804688 342.023438 C 145.398438 342.023438 145.878906 341.542969 145.878906 340.953125 C 145.878906 340.363281 145.398438 339.882812 144.804688 339.882812 "/>
<path fill-rule="nonzero" fill="rgb(0.784302%, 0%, 0%)" fill-opacity="1" d="M 144.804688 342.023438 C 144.214844 342.023438 143.738281 341.542969 143.738281 340.953125 C 143.738281 340.363281 144.214844 339.882812 144.804688 339.882812 C 145.398438 339.882812 145.878906 340.363281 145.878906 340.953125 C 145.878906 341.542969 145.398438 342.023438 144.804688 342.023438 M 144.804688 335.609375 C 141.859375 335.609375 139.464844 338.007812 139.464844 340.953125 C 139.464844 343.898438 141.859375 346.292969 144.804688 346.292969 C 147.753906 346.292969 150.148438 343.898438 150.148438 340.953125 C 150.148438 338.007812 147.753906 335.609375 144.804688 335.609375 "/>
<path fill-rule="nonzero" fill="rgb(0.784302%, 0%, 0%)" fill-opacity="1" d="M 167.109375 359.304688 C 166.019531 361.257812 164.523438 362.476562 162.535156 363.019531 C 135.582031 370.390625 96.070312 370.398438 68.582031 363.042969 C 66.597656 362.515625 65.105469 361.316406 64.019531 359.378906 C 59.59375 351.5 63.160156 334.390625 64.90625 328.464844 L 65.027344 328.046875 L 65.035156 327.613281 C 65.042969 327.171875 65.800781 283.058594 65.007812 249.519531 C 64.574219 231.15625 66.679688 216.960938 71.632812 204.84375 C 79.511719 185.570312 84.449219 165.332031 88.835938 146.253906 C 89.148438 144.894531 89.441406 143.59375 89.707031 142.386719 C 89.824219 141.839844 89.949219 141.234375 90.066406 140.609375 C 92.90625 125.945312 96.03125 90.933594 96.167969 89.390625 L 96.328125 86.996094 L 94.117188 86.109375 C 93.101562 85.707031 90.835938 84.371094 91.757812 80.757812 C 92.910156 76.238281 99.816406 74.304688 114.851562 74.296875 L 114.890625 74.296875 C 134.550781 74.296875 137.539062 78.679688 137.910156 80.566406 C 138.128906 81.6875 138.125 82.539062 138.023438 83.21875 L 138 83.308594 C 137.976562 83.390625 137.972656 83.476562 137.964844 83.558594 C 137.933594 83.703125 137.898438 83.832031 137.855469 83.957031 C 137.828125 84.007812 137.804688 84.058594 137.753906 84.113281 C 137.589844 84.441406 137.09375 84.820312 136.546875 85.175781 C 135.390625 85.882812 133.789062 86.410156 132.152344 86.808594 C 128.832031 87.613281 125.242188 87.953125 121.574219 88.304688 C 120.632812 88.390625 119.886719 89.171875 119.867188 90.140625 C 119.84375 91.183594 120.667969 92.046875 121.710938 92.070312 L 121.722656 92.070312 C 125.371094 92.152344 129.132812 92.277344 133.039062 91.820312 C 133.675781 91.738281 134.324219 91.640625 134.976562 91.523438 C 135.578125 98.085938 137.175781 114.75 138.964844 128.148438 C 139.722656 133.8125 140.511719 138.890625 141.277344 142.367188 C 141.542969 143.582031 141.839844 144.890625 142.15625 146.261719 C 147.226562 168.257812 153.144531 188.121094 160.246094 206.988281 C 164.601562 218.554688 166.445312 232.058594 166.042969 249.484375 C 165.273438 283.023438 166.0625 327.136719 166.070312 327.578125 L 166.078125 328.011719 L 166.203125 328.429688 C 167.949219 334.328125 171.519531 351.378906 167.109375 359.304688 M 172.46875 327.042969 C 172.390625 322.4375 171.722656 281.289062 172.449219 249.628906 C 172.871094 231.355469 170.898438 217.089844 166.246094 204.730469 C 159.242188 186.132812 153.40625 166.535156 148.398438 144.820312 C 148.089844 143.472656 147.796875 142.1875 147.535156 140.992188 C 144.988281 129.402344 142.011719 98.050781 141.277344 90.03125 C 142.648438 88.816406 143.941406 86.863281 144.347656 84.101562 C 144.351562 84.082031 144.359375 84.0625 144.363281 84.042969 C 144.367188 84.019531 144.359375 84 144.363281 83.980469 C 144.550781 82.621094 144.542969 81.089844 144.195312 79.328125 C 142.183594 69.082031 126.523438 67.890625 114.898438 67.890625 L 114.847656 67.890625 C 102.0625 67.894531 88.199219 68.773438 85.546875 79.175781 C 84.027344 85.136719 86.835938 88.964844 89.597656 90.902344 C 88.832031 99.167969 85.910156 129.78125 83.445312 141.011719 C 83.1875 142.199219 82.898438 143.480469 82.589844 144.820312 C 78.265625 163.640625 73.398438 183.589844 65.703125 202.417969 C 60.402344 215.382812 58.148438 230.398438 58.601562 249.667969 C 59.347656 281.324219 58.710938 322.476562 58.636719 327.082031 C 57.6875 330.453125 52.195312 351.394531 58.425781 362.507812 C 60.375 365.984375 63.234375 368.25 66.921875 369.234375 C 81.132812 373.039062 98.441406 374.9375 115.691406 374.9375 C 132.996094 374.9375 150.246094 373.023438 164.226562 369.199219 C 167.910156 368.191406 170.765625 365.910156 172.707031 362.421875 C 178.90625 351.28125 173.417969 330.40625 172.46875 327.042969 "/>
<path fill-rule="nonzero" fill="rgb(0.784302%, 0%, 0%)" fill-opacity="1" d="M 115.09375 81.519531 C 122.964844 81.515625 129.347656 80.304688 129.347656 78.816406 C 129.347656 77.328125 122.964844 76.121094 115.089844 76.125 C 107.21875 76.125 100.835938 77.335938 100.835938 78.824219 C 100.835938 80.316406 107.21875 81.519531 115.09375 81.519531 "/>
<path fill-rule="nonzero" fill="rgb(97.254944%, 60.784912%, 22.744751%)" fill-opacity="1" d="M 97.503906 59.367188 C 100.363281 59.363281 102.6875 57.039062 102.6875 54.179688 C 102.6875 52.796875 102.148438 51.496094 101.167969 50.511719 C 100.1875 49.535156 98.886719 48.996094 97.503906 48.996094 C 96.117188 48.996094 94.816406 49.539062 93.835938 50.515625 C 92.855469 51.496094 92.320312 52.796875 92.320312 54.183594 C 92.320312 57.039062 94.648438 59.367188 97.503906 59.367188 "/>
<path fill-rule="nonzero" fill="rgb(0.784302%, 0%, 0%)" fill-opacity="1" d="M 93.835938 50.515625 C 94.8125 49.539062 96.117188 48.996094 97.5 48.996094 L 97.507812 48.996094 C 98.886719 48.996094 100.1875 49.535156 101.167969 50.515625 C 102.148438 51.492188 102.6875 52.796875 102.6875 54.179688 C 102.691406 57.039062 100.363281 59.363281 97.507812 59.367188 C 94.648438 59.367188 92.320312 57.042969 92.320312 54.183594 C 92.320312 52.796875 92.855469 51.496094 93.835938 50.515625 M 97.507812 63.636719 C 102.71875 63.636719 106.960938 59.390625 106.960938 54.179688 C 106.957031 51.652344 105.976562 49.277344 104.1875 47.492188 C 102.402344 45.707031 100.03125 44.726562 97.507812 44.726562 L 97.5 44.726562 C 94.976562 44.726562 92.601562 45.710938 90.816406 47.496094 C 89.027344 49.28125 88.046875 51.65625 88.046875 54.183594 C 88.046875 59.398438 92.292969 63.636719 97.507812 63.636719 "/>
<path fill-rule="nonzero" fill="rgb(97.254944%, 60.784912%, 22.744751%)" fill-opacity="1" d="M 114.0625 42.40625 L 114.066406 42.40625 C 118.414062 42.40625 121.949219 38.871094 121.945312 34.523438 C 121.945312 32.417969 121.125 30.4375 119.636719 28.953125 C 118.148438 27.464844 116.167969 26.644531 114.066406 26.644531 L 114.0625 26.644531 C 111.957031 26.644531 109.976562 27.464844 108.488281 28.957031 C 107 30.445312 106.183594 32.421875 106.183594 34.527344 C 106.183594 38.875 109.71875 42.40625 114.0625 42.40625 "/>
<path fill-rule="nonzero" fill="rgb(0.784302%, 0%, 0%)" fill-opacity="1" d="M 108.488281 28.953125 C 109.976562 27.464844 111.957031 26.644531 114.0625 26.644531 L 114.066406 26.644531 C 116.167969 26.644531 118.148438 27.464844 119.636719 28.949219 C 121.125 30.4375 121.945312 32.417969 121.945312 34.523438 C 121.949219 38.871094 118.414062 42.40625 114.066406 42.40625 L 114.0625 42.40625 C 109.71875 42.40625 106.183594 38.875 106.183594 34.527344 C 106.183594 32.425781 107.003906 30.445312 108.488281 28.953125 M 114.0625 46.679688 L 114.070312 46.679688 C 120.769531 46.675781 126.21875 41.222656 126.21875 34.523438 C 126.21875 31.273438 124.953125 28.222656 122.65625 25.929688 C 120.359375 23.632812 117.308594 22.371094 114.066406 22.371094 L 114.058594 22.371094 C 110.8125 22.375 107.761719 23.636719 105.46875 25.933594 C 103.171875 28.230469 101.910156 31.28125 101.910156 34.527344 C 101.914062 41.230469 107.363281 46.679688 114.0625 46.679688 "/>
<path fill-rule="nonzero" fill="rgb(97.254944%, 60.784912%, 22.744751%)" fill-opacity="1" d="M 129.410156 59.285156 C 130.992188 59.285156 132.28125 57.996094 132.28125 56.410156 C 132.277344 54.828125 130.988281 53.539062 129.40625 53.539062 C 127.820312 53.539062 126.53125 54.828125 126.535156 56.414062 C 126.535156 57.996094 127.824219 59.285156 129.410156 59.285156 "/>
<path fill-rule="nonzero" fill="rgb(0.784302%, 0%, 0%)" fill-opacity="1" d="M 129.40625 53.539062 C 130.988281 53.539062 132.277344 54.828125 132.28125 56.410156 C 132.28125 57.992188 130.992188 59.28125 129.410156 59.285156 C 127.824219 59.285156 126.535156 57.996094 126.535156 56.414062 C 126.53125 54.828125 127.824219 53.539062 129.40625 53.539062 M 122.261719 56.414062 C 122.261719 60.355469 125.46875 63.558594 129.410156 63.558594 C 133.351562 63.554688 136.554688 60.347656 136.550781 56.410156 C 136.550781 52.46875 133.34375 49.265625 129.402344 49.265625 C 125.464844 49.269531 122.261719 52.472656 122.261719 56.414062 "/>
<path fill-rule="nonzero" fill="rgb(100%, 100%, 100%)" fill-opacity="1" d="M 79.535156 357.777344 L 79.367188 357.671875 C 78.257812 356.980469 77.089844 356.539062 76.066406 355.890625 C 75.078125 355.203125 74.027344 354.648438 73.242188 353.828125 C 71.539062 352.351562 70.257812 350.59375 69.601562 348.484375 C 68.140625 344.316406 68.5625 339.242188 69.339844 334.226562 L 69.351562 334.15625 C 69.398438 333.84375 69.269531 333.515625 68.988281 333.328125 C 68.597656 333.066406 68.074219 333.171875 67.816406 333.558594 C 66.246094 335.902344 65.308594 338.507812 64.804688 341.292969 C 64.304688 344.070312 64.394531 347.070312 65.335938 349.960938 C 65.632812 350.660156 65.871094 351.386719 66.238281 352.054688 C 66.644531 352.707031 67.042969 353.367188 67.476562 354 C 68.515625 355.117188 69.519531 356.304688 70.84375 357.019531 C 72.042969 357.9375 73.453125 358.359375 74.78125 358.871094 C 76.144531 359.273438 77.550781 359.425781 78.910156 359.574219 C 79.273438 359.613281 79.640625 359.449219 79.847656 359.121094 C 80.132812 358.664062 79.992188 358.0625 79.535156 357.777344 "/>
<path fill-rule="nonzero" fill="rgb(100%, 100%, 100%)" fill-opacity="1" d="M 69.457031 318.917969 C 69.917969 318.957031 70.320312 318.617188 70.363281 318.160156 C 71.492188 305.246094 71.800781 292.328125 71.910156 279.410156 C 71.933594 266.492188 71.753906 253.570312 70.753906 240.648438 C 70.714844 240.179688 70.34375 239.789062 69.855469 239.75 C 69.316406 239.703125 68.839844 240.105469 68.796875 240.644531 C 67.710938 253.558594 67.453125 266.476562 67.394531 279.394531 C 67.421875 292.3125 67.648438 305.230469 68.695312 318.152344 C 68.730469 318.550781 69.042969 318.882812 69.457031 318.917969 "/>
<path fill-rule="nonzero" fill="rgb(100%, 100%, 100%)" fill-opacity="1" d="M 114.507812 234.566406 C 115.097656 223.910156 114.953125 201.339844 104.046875 195.765625 C 102.445312 194.945312 100.972656 194.574219 99.617188 194.574219 C 99.378906 194.574219 99.148438 194.601562 98.914062 194.625 C 100.65625 195.484375 102.113281 197.101562 103.148438 199.230469 L 100.386719 205.867188 L 104.671875 204.457031 C 104.914062 206.226562 104.941406 208.128906 104.710938 210.09375 C 103.738281 218.359375 98.609375 224.550781 93.257812 223.921875 C 90.074219 223.546875 87.535156 220.824219 86.203125 216.949219 C 85.5 221.136719 85.191406 224.902344 85.152344 227.136719 C 93.277344 232.441406 103.390625 234.761719 110.929688 234.761719 C 112.203125 234.761719 113.402344 234.699219 114.507812 234.566406 "/>
<path fill-rule="nonzero" fill="rgb(100%, 100%, 100%)" fill-opacity="1" d="M 125.09375 234.757812 C 132.636719 234.757812 142.761719 232.433594 150.890625 227.113281 C 150.753906 219.574219 147.539062 194.5625 136.40625 194.5625 C 135.140625 194.5625 133.765625 194.902344 132.285156 195.613281 C 132.449219 195.621094 132.613281 195.613281 132.777344 195.636719 C 134.332031 195.816406 135.726562 196.566406 136.90625 197.726562 L 134.007812 204.683594 L 139.882812 202.75 C 140.753906 205.355469 141.089844 208.464844 140.703125 211.75 C 139.726562 220.019531 134.597656 226.210938 129.25 225.578125 C 125.777344 225.167969 123.078125 221.984375 121.867188 217.542969 C 121.1875 223.890625 121.292969 230.21875 121.539062 234.566406 C 122.636719 234.691406 123.828125 234.757812 125.09375 234.757812 "/>
<path fill-rule="nonzero" fill="rgb(0.784302%, 0%, 0%)" fill-opacity="1" d="M 86.203125 216.949219 C 87.535156 220.824219 90.074219 223.546875 93.257812 223.921875 C 98.609375 224.550781 103.738281 218.359375 104.710938 210.09375 C 104.941406 208.128906 104.910156 206.226562 104.667969 204.457031 L 100.386719 205.867188 L 103.148438 199.234375 C 102.113281 197.101562 100.660156 195.484375 98.914062 194.625 C 99.148438 194.601562 99.378906 194.574219 99.617188 194.574219 C 100.972656 194.574219 102.445312 194.945312 104.046875 195.765625 C 114.953125 201.339844 115.097656 223.910156 114.507812 234.566406 C 113.40625 234.699219 112.203125 234.761719 110.929688 234.761719 C 103.390625 234.761719 93.277344 232.441406 85.148438 227.136719 C 85.191406 224.902344 85.5 221.140625 86.203125 216.949219 M 121.867188 217.542969 C 123.078125 221.984375 125.777344 225.167969 129.246094 225.578125 C 134.597656 226.210938 139.726562 220.019531 140.699219 211.75 C 141.089844 208.464844 140.753906 205.355469 139.882812 202.75 L 134.007812 204.683594 L 136.90625 197.722656 C 135.722656 196.570312 134.332031 195.816406 132.777344 195.632812 C 132.613281 195.613281 132.449219 195.621094 132.285156 195.613281 C 133.765625 194.902344 135.136719 194.5625 136.40625 194.5625 C 147.539062 194.5625 150.753906 219.574219 150.890625 227.113281 C 142.757812 232.429688 132.636719 234.757812 125.09375 234.757812 C 123.828125 234.757812 122.636719 234.695312 121.539062 234.566406 C 121.292969 230.21875 121.1875 223.890625 121.867188 217.542969 M 110.929688 240.105469 C 112.402344 240.105469 113.816406 240.027344 115.128906 239.871094 L 118.027344 239.53125 L 120.921875 239.871094 C 122.226562 240.023438 123.628906 240.097656 125.09375 240.097656 C 132.683594 240.097656 144.214844 237.859375 153.8125 231.582031 L 156.285156 229.96875 L 156.230469 227.015625 C 156.222656 226.636719 155.019531 189.222656 136.40625 189.222656 C 134.15625 189.222656 131.84375 189.824219 129.539062 191.003906 C 125.253906 193.199219 120.601562 198.019531 118.015625 208.242188 C 115.421875 198.023438 110.765625 193.203125 106.476562 191.007812 C 104.175781 189.832031 101.867188 189.234375 99.617188 189.234375 C 80.996094 189.238281 79.816406 226.664062 79.8125 227.042969 L 79.757812 229.992188 L 82.230469 231.605469 C 91.824219 237.871094 103.34375 240.105469 110.929688 240.105469 "/>
<path fill-rule="nonzero" fill="rgb(100%, 100%, 100%)" fill-opacity="1" d="M 120.179688 250.621094 C 120.414062 261.777344 120.695312 278.484375 120.898438 291.226562 C 125.648438 291.058594 130.054688 290.390625 134.015625 289.246094 L 127.652344 249.503906 C 125.3125 249.9375 122.808594 250.339844 120.179688 250.621094 "/>
<path fill-rule="nonzero" fill="rgb(100%, 100%, 100%)" fill-opacity="1" d="M 108.136719 249.9375 L 101.777344 288.828125 C 105.972656 290.203125 110.664062 291 115.761719 291.210938 C 115.523438 276.617188 115.257812 261.136719 115.046875 250.882812 C 112.71875 250.804688 110.402344 250.441406 108.136719 249.9375 "/>
<path fill-rule="nonzero" fill="rgb(100%, 100%, 100%)" fill-opacity="1" d="M 90.046875 245.671875 C 86.359375 245.671875 83.894531 247.347656 82.042969 252.058594 C 78.941406 259.933594 79.679688 268.308594 83.945312 275.347656 L 91.058594 245.75 C 90.722656 245.726562 90.363281 245.671875 90.046875 245.671875 "/>
<path fill-rule="nonzero" fill="rgb(100%, 100%, 100%)" fill-opacity="1" d="M 100.847656 247.972656 C 99.121094 247.460938 97.578125 247.027344 96.125 246.65625 L 87.972656 280.570312 C 90.472656 283.105469 93.460938 285.21875 96.890625 286.875 L 103.140625 248.644531 C 102.367188 248.421875 101.597656 248.195312 100.847656 247.972656 "/>
<path fill-rule="nonzero" fill="rgb(100%, 100%, 100%)" fill-opacity="1" d="M 144.933594 248.25 L 153.25 274.71875 C 153.265625 274.6875 153.285156 274.65625 153.300781 274.628906 C 156.757812 267.738281 156.367188 259.851562 152.28125 254.046875 C 150.007812 250.8125 147.609375 249.074219 144.933594 248.25 "/>
<path fill-rule="nonzero" fill="rgb(100%, 100%, 100%)" fill-opacity="1" d="M 132.703125 248.554688 L 138.9375 287.476562 C 143.199219 285.628906 146.78125 283.136719 149.546875 280.078125 L 139.363281 247.667969 C 137.324219 247.765625 135.117188 248.109375 132.703125 248.554688 "/>
<path fill-rule="nonzero" fill="rgb(0.784302%, 0%, 0%)" fill-opacity="1" d="M 153.300781 274.628906 C 153.285156 274.660156 153.265625 274.6875 153.25 274.71875 L 144.933594 248.25 C 147.609375 249.074219 150.007812 250.8125 152.28125 254.046875 C 156.367188 259.851562 156.757812 267.738281 153.300781 274.628906 M 138.9375 287.476562 L 132.703125 248.554688 C 135.117188 248.109375 137.324219 247.769531 139.363281 247.667969 L 149.546875 280.078125 C 146.78125 283.136719 143.199219 285.628906 138.9375 287.476562 M 120.898438 291.226562 C 120.695312 278.484375 120.414062 261.777344 120.179688 250.621094 C 122.808594 250.339844 125.3125 249.9375 127.652344 249.503906 L 134.015625 289.246094 C 130.054688 290.390625 125.648438 291.058594 120.898438 291.226562 M 101.777344 288.828125 L 108.136719 249.9375 C 110.402344 250.441406 112.71875 250.804688 115.046875 250.882812 C 115.257812 261.136719 115.523438 276.617188 115.757812 291.210938 C 110.664062 291 105.972656 290.203125 101.777344 288.828125 M 87.972656 280.570312 L 96.125 246.65625 C 97.578125 247.027344 99.121094 247.460938 100.851562 247.972656 C 101.597656 248.195312 102.367188 248.421875 103.144531 248.644531 L 96.890625 286.875 C 93.460938 285.21875 90.472656 283.105469 87.972656 280.570312 M 82.042969 252.058594 C 83.894531 247.34375 86.359375 245.671875 90.046875 245.671875 C 90.363281 245.671875 90.722656 245.726562 91.058594 245.75 L 83.945312 275.347656 C 79.679688 268.308594 78.941406 259.933594 82.042969 252.058594 M 129.121094 243.484375 C 125.382812 244.203125 121.515625 244.945312 117.304688 245.230469 C 112.523438 245.546875 107.402344 244.035156 102.457031 242.5625 C 92.914062 239.730469 82.097656 236.519531 76.792969 249.996094 C 72.816406 260.089844 74.121094 271.363281 80.277344 280.140625 C 87.898438 291.003906 101.414062 296.921875 118.492188 296.921875 C 119.179688 296.921875 119.875 296.910156 120.574219 296.890625 C 138.527344 296.394531 152.296875 289.203125 158.34375 277.15625 C 162.734375 268.410156 162.179688 258.3125 156.894531 250.800781 C 149.066406 239.664062 139.375 241.519531 129.121094 243.484375 "/>
</svg>
